# xmcd
#
# Track frame offsets:
#	150
#	29737
#	52862
#	75344
#	100815
#	124903
#	154609
#	179160
#	201973
#	221626
#	242667
#	261267
#	282801
#	299251
#	318623
#	336529
#
# Disc length: 4759 seconds
#
# Revision: 1
# Processed by: cddbd v1.5.2PL0 Copyright (c) Steve Scherf et al.
# Submitted via: audiograbber 1.83.01
#
DISCID=f6129510
DTITLE=Luther Vandross and Barry White - XTA - 72
DYEAR=1900
DGENRE=R and B
TTITLE0=Luther Vandross - A House Is Not A Home
TTITLE1=Luther Vandross - A house Is Not A home
TTITLE2=Luther Vandross - Forever and Always
TTITLE3=Luther Vandross - Here and Now
TTITLE4=Luther Vandross - if I ruled The World
TTITLE5=Luther Vandross - Superstar
TTITLE6=Luther Vandross - The Impossable
TTITLE7=Luther Vandross - The Best Things in Life Are Free
TTITLE8=Luther Vandross - Dance With My Father
TTITLE9=Luther Vandross - Endless Love
TTITLE10=Luther Vandross - Never Too Much
TTITLE11=Luther Vandross - Power Of Love
TTITLE12=Barry White - You're The First The Last My Everything
TTITLE13=Barry White - Can't Get Enough Of Your Love
TTITLE14=Barry White - it's Ectacy
TTITLE15=Barry White - Never Gonna give you Up
EXTD=
EXTT0=
EXTT1=
EXTT2=
EXTT3=
EXTT4=
EXTT5=
EXTT6=
EXTT7=
EXTT8=
EXTT9=
EXTT10=
EXTT11=
EXTT12=
EXTT13=
EXTT14=
EXTT15=
PLAYORDER=
